<svg width="108" height="30" viewBox="0 0 108 30" fill="none" xmlns="http://www.w3.org/2000/svg">
    <path d="M54.316 17.16C54.316 18.238 53.81 19.272 52.446 19.272C51.148 19.272 50.708 18.282 50.708 17.204V10.802H47.364V18.15C47.364 20.526 48.816 22.286 51.28 22.286C52.468 22.286 53.7 21.802 54.492 20.658V22H57.66V10.802H54.316V17.16ZM59.8095 22H63.1535V5.698H59.8095V22ZM66.0604 7.656V10.802H64.3884V13.794H66.0604V18.194C66.0604 20.702 67.0944 22.286 69.9544 22.286C70.9884 22.286 71.6704 22.11 72.2424 21.846V18.92C71.7804 19.206 71.3404 19.338 70.7464 19.338C69.8004 19.338 69.4044 18.942 69.4044 17.908V13.794H72.0224V10.802H69.4044V6.864L66.0604 7.656ZM75.3238 5.566C74.0258 5.566 73.2558 6.468 73.2558 7.568C73.2558 8.624 74.0258 9.548 75.3238 9.548C76.6438 9.548 77.4138 8.624 77.4138 7.568C77.4138 6.468 76.6438 5.566 75.3238 5.566ZM73.6738 22H77.0178V10.802H73.6738V22ZM79.1767 22H82.5207V15.664C82.5207 14.608 83.0487 13.596 84.3687 13.596C85.6887 13.596 86.1507 14.542 86.1507 15.554V22H89.4947V15.664C89.4947 14.608 90.0007 13.596 91.3427 13.596C92.6627 13.596 93.1027 14.542 93.1027 15.554V22H96.4467V14.652C96.4467 12.254 94.9947 10.516 92.5087 10.516C91.1007 10.516 89.7587 11.088 88.9227 12.342C88.2847 11.22 87.1407 10.516 85.5787 10.516C84.3907 10.516 83.1587 11 82.3667 12.166V10.802H79.1767V22ZM104.743 20.724V22H107.911V14.96C107.911 12.474 106.371 10.516 103.115 10.516C100.233 10.516 98.2311 12.32 98.0991 14.586H101.333C101.421 13.794 102.037 13.266 103.049 13.266C104.017 13.266 104.611 13.816 104.611 14.63V14.74L101.861 15.356C99.0671 15.972 97.8791 17.16 97.8791 19.096C97.8791 21.054 99.4631 22.286 101.553 22.286C102.609 22.286 103.907 21.912 104.743 20.724ZM104.611 17.38C104.611 18.524 103.665 19.668 102.433 19.668C101.619 19.668 101.157 19.36 101.157 18.656C101.157 17.996 101.751 17.622 102.741 17.402L104.611 17.006V17.38Z" fill="#F9F9F9"/>
    <g filter="url(#filter0_i)">
    <path fill-rule="evenodd" clip-rule="evenodd" d="M7.6891 1.89917C9.85214 0.689499 12.3456 0 15 0C23.2843 0 30 6.71573 30 15C30 23.2843 23.2843 30 15 30C6.71573 30 0 23.2843 0 15C0 11.8307 0.98293 8.89089 2.66058 6.46891C3.28041 7.12908 4.1611 7.54143 5.13811 7.54143C7.01465 7.54143 8.5359 6.02019 8.5359 4.14364C8.5359 3.28337 8.21619 2.49777 7.6891 1.89917ZM6.46408 15C6.46408 10.2857 10.2857 6.46408 15 6.46408C19.7142 6.46408 23.5359 10.2857 23.5359 15C23.5359 19.7142 19.7142 23.5359 15 23.5359C10.2857 23.5359 6.46408 19.7142 6.46408 15Z" fill="#F9F9F9"/>
    <path fill-rule="evenodd" clip-rule="evenodd" d="M7.68912 1.89918C5.68414 3.02045 3.96302 4.58865 2.6606 6.46893C2.08989 5.8611 1.74033 5.04319 1.74033 4.14364C1.74033 2.26709 3.26157 0.74585 5.13812 0.74585C6.15439 0.74585 7.06646 1.19202 7.68912 1.89918Z" fill="#F9F9F9"/>
    </g>
    <defs>
    <filter id="filter0_i" x="0" y="0" width="30" height="30" filterUnits="userSpaceOnUse" color-interpolation-filters="sRGB">
    <feFlood flood-opacity="0" result="BackgroundImageFix"/>
    <feBlend mode="normal" in="SourceGraphic" in2="BackgroundImageFix" result="shape"/>
    <feColorMatrix in="SourceAlpha" type="matrix" values="0 0 0 0 0 0 0 0 0 0 0 0 0 0 0 0 0 0 127 0" result="hardAlpha"/>
    <feOffset/>
    <feGaussianBlur stdDeviation="2.23757"/>
    <feComposite in2="hardAlpha" operator="arithmetic" k2="-1" k3="1"/>
    <feColorMatrix type="matrix" values="0 0 0 0 0 0 0 0 0 0 0 0 0 0 0 0 0 0 0.07 0"/>
    <feBlend mode="normal" in2="shape" result="effect1_innerShadow"/>
    </filter>
    </defs>
</svg>