<svg width="30" height="30" viewBox="0 0 30 30" fill="none" xmlns="http://www.w3.org/2000/svg">
<g filter="url(#filter0_i)">
<path fill-rule="evenodd" clip-rule="evenodd" d="M7.6891 1.89917C9.85214 0.689499 12.3456 0 15 0C23.2843 0 30 6.71573 30 15C30 23.2843 23.2843 30 15 30C6.71573 30 0 23.2843 0 15C0 11.8307 0.98293 8.89089 2.66058 6.46891C3.28041 7.12908 4.1611 7.54143 5.13811 7.54143C7.01465 7.54143 8.5359 6.02019 8.5359 4.14364C8.5359 3.28337 8.21619 2.49777 7.6891 1.89917ZM6.46408 15C6.46408 10.2857 10.2857 6.46408 15 6.46408C19.7142 6.46408 23.5359 10.2857 23.5359 15C23.5359 19.7142 19.7142 23.5359 15 23.5359C10.2857 23.5359 6.46408 19.7142 6.46408 15Z" fill="#F9F9F9"/>
<path fill-rule="evenodd" clip-rule="evenodd" d="M7.68903 1.89918C5.68405 3.02045 3.96293 4.58865 2.66051 6.46893C2.0898 5.8611 1.74023 5.04319 1.74023 4.14364C1.74023 2.26709 3.26148 0.74585 5.13802 0.74585C6.1543 0.74585 7.06637 1.19202 7.68903 1.89918Z" fill="#F9F9F9"/>
</g>
<defs>
<filter id="filter0_i" x="0" y="0" width="30" height="30" filterUnits="userSpaceOnUse" color-interpolation-filters="sRGB">
<feFlood flood-opacity="0" result="BackgroundImageFix"/>
<feBlend mode="normal" in="SourceGraphic" in2="BackgroundImageFix" result="shape"/>
<feColorMatrix in="SourceAlpha" type="matrix" values="0 0 0 0 0 0 0 0 0 0 0 0 0 0 0 0 0 0 127 0" result="hardAlpha"/>
<feOffset/>
<feGaussianBlur stdDeviation="2.23757"/>
<feComposite in2="hardAlpha" operator="arithmetic" k2="-1" k3="1"/>
<feColorMatrix type="matrix" values="0 0 0 0 0 0 0 0 0 0 0 0 0 0 0 0 0 0 0.07 0"/>
<feBlend mode="normal" in2="shape" result="effect1_innerShadow"/>
</filter>
</defs>
</svg>
