<svg width="24" height="24" viewBox="0 0 24 24" fill="none" xmlns="http://www.w3.org/2000/svg">
<path d="M4.94788 15.1662C4.94788 16.5016 3.85663 17.5929 2.52117 17.5929C1.18572 17.5929 0.0944626 16.5016 0.0944626 15.1662C0.0944626 13.8307 1.18572 12.7395 2.52117 12.7395H4.94788V15.1662Z" fill="#E01E5A" stroke="white" stroke-width="0.188925"/>
<path d="M6.40696 15.1662C6.40696 13.8307 7.49822 12.7395 8.83367 12.7395C10.1691 12.7395 11.2604 13.8307 11.2604 15.1662V21.4789C11.2604 22.8143 10.1691 23.9056 8.83367 23.9056C7.49822 23.9056 6.40696 22.8143 6.40696 21.4789V15.1662Z" fill="#E01E5A" stroke="white" stroke-width="0.188925"/>
<path d="M8.83367 4.94788C7.49822 4.94788 6.40696 3.85663 6.40696 2.52117C6.40696 1.18572 7.49822 0.0944626 8.83367 0.0944626C10.1691 0.0944626 11.2604 1.18572 11.2604 2.52117V4.94788H8.83367Z" fill="#36C5F0" stroke="white" stroke-width="0.188925"/>
<path d="M8.83388 6.40721C10.1693 6.40721 11.2606 7.49847 11.2606 8.83392C11.2606 10.1694 10.1693 11.2606 8.83388 11.2606H2.52117C1.18572 11.2606 0.0944626 10.1694 0.0944626 8.83392C0.0944626 7.49847 1.18572 6.40721 2.52117 6.40721H8.83388Z" fill="#36C5F0" stroke="white" stroke-width="0.188925"/>
<path d="M19.0515 8.83392C19.0515 7.49847 20.1428 6.40721 21.4782 6.40721C22.8137 6.40721 23.9049 7.49847 23.9049 8.83392C23.9049 10.1694 22.8137 11.2606 21.4782 11.2606H19.0515V8.83392Z" fill="#2EB67D" stroke="white" stroke-width="0.188925"/>
<path d="M17.5924 8.83388C17.5924 10.1693 16.5012 11.2606 15.1657 11.2606C13.8303 11.2606 12.739 10.1693 12.739 8.83388V2.52117C12.739 1.18572 13.8303 0.0944626 15.1657 0.0944626C16.5012 0.0944626 17.5924 1.18572 17.5924 2.52117V8.83388Z" fill="#2EB67D" stroke="white" stroke-width="0.188925"/>
<path d="M15.1657 19.0522C16.5012 19.0522 17.5924 20.1435 17.5924 21.4789C17.5924 22.8144 16.5012 23.9056 15.1657 23.9056C13.8303 23.9056 12.739 22.8144 12.739 21.4789V19.0522H15.1657Z" fill="#ECB22E" stroke="white" stroke-width="0.188925"/>
<path d="M15.1657 17.5929C13.8303 17.5929 12.739 16.5016 12.739 15.1662C12.739 13.8307 13.8303 12.7395 15.1657 12.7395H21.4784C22.8139 12.7395 23.9051 13.8307 23.9051 15.1662C23.9051 16.5016 22.8139 17.5929 21.4784 17.5929H15.1657Z" fill="#ECB22E" stroke="white" stroke-width="0.188925"/>
</svg>
