<svg width="384" height="82" viewBox="0 0 384 82" fill="none" xmlns="http://www.w3.org/2000/svg">
<g filter="url(#filter0_i)">
<path fill-rule="evenodd" clip-rule="evenodd" d="M21.017 5.19102C26.9292 1.88461 33.7445 0 41 0C63.6437 0 82 18.3563 82 41C82 63.6437 63.6437 82 41 82C18.3563 82 0 63.6437 0 41C0 32.3371 2.68669 24.3017 7.27229 17.6816C8.96651 19.4861 11.3737 20.6132 14.0442 20.6132C19.1735 20.6132 23.3315 16.4551 23.3315 11.3259C23.3315 8.97449 22.4576 6.82718 21.017 5.19102ZM17.6686 41.0001C17.6686 28.1144 28.1144 17.6686 41.0001 17.6686C53.8857 17.6686 64.3315 28.1144 64.3315 41.0001C64.3315 53.8857 53.8857 64.3315 41.0001 64.3315C28.1144 64.3315 17.6686 53.8857 17.6686 41.0001Z" fill="#1D1D1D"/>
<path fill-rule="evenodd" clip-rule="evenodd" d="M21.0169 5.19104C15.5366 8.25585 10.8322 12.5423 7.27227 17.6817C5.71233 16.0203 4.75684 13.7847 4.75684 11.3259C4.75684 6.19664 8.9149 2.03857 14.0441 2.03857C16.822 2.03857 19.315 3.25813 21.0169 5.19104Z" fill="#1D1D1D"/>
</g>
<path d="M154.288 55.592C154.288 60.296 152.08 64.808 146.128 64.808C140.464 64.808 138.544 60.488 138.544 55.784V27.848H123.952V59.912C123.952 70.28 130.288 77.96 141.04 77.96C146.224 77.96 151.6 75.848 155.056 70.856V76.712H168.88V27.848H154.288V55.592Z" fill="#1D1D1D"/>
<path d="M177.299 76.712H191.891V5.576H177.299V76.712Z" fill="#1D1D1D"/>
<path d="M203.616 14.12V27.848H196.32V40.904H203.616V60.104C203.616 71.048 208.128 77.96 220.608 77.96C225.12 77.96 228.096 77.192 230.592 76.04V63.272C228.576 64.52 226.656 65.096 224.064 65.096C219.936 65.096 218.208 63.368 218.208 58.856V40.904H229.632V27.848H218.208V10.664L203.616 14.12Z" fill="#1D1D1D"/>
<path d="M243.078 5C237.414 5 234.054 8.936 234.054 13.736C234.054 18.344 237.414 22.376 243.078 22.376C248.838 22.376 252.198 18.344 252.198 13.736C252.198 8.936 248.838 5 243.078 5ZM235.878 76.712H250.47V27.848H235.878V76.712Z" fill="#1D1D1D"/>
<path d="M258.931 76.712H273.523V49.064C273.523 44.456 275.827 40.04 281.587 40.04C287.347 40.04 289.363 44.168 289.363 48.584V76.712H303.955V49.064C303.955 44.456 306.163 40.04 312.019 40.04C317.779 40.04 319.699 44.168 319.699 48.584V76.712H334.291V44.648C334.291 34.184 327.955 26.6 317.107 26.6C310.963 26.6 305.107 29.096 301.459 34.568C298.675 29.672 293.683 26.6 286.867 26.6C281.683 26.6 276.307 28.712 272.851 33.8V27.848H258.931V76.712Z" fill="#1D1D1D"/>
<path d="M369.533 71.144V76.712H383.357V45.992C383.357 35.144 376.637 26.6 362.429 26.6C349.853 26.6 341.117 34.472 340.541 44.36H354.653C355.037 40.904 357.725 38.6 362.141 38.6C366.365 38.6 368.957 41 368.957 44.552V45.032L356.957 47.72C344.765 50.408 339.581 55.592 339.581 64.04C339.581 72.584 346.493 77.96 355.613 77.96C360.221 77.96 365.885 76.328 369.533 71.144ZM368.957 56.552C368.957 61.544 364.829 66.536 359.453 66.536C355.901 66.536 353.885 65.192 353.885 62.12C353.885 59.24 356.477 57.608 360.797 56.648L368.957 54.92V56.552Z" fill="#1D1D1D"/>
<defs>
<filter id="filter0_i" x="0" y="0" width="82" height="82" filterUnits="userSpaceOnUse" color-interpolation-filters="sRGB">
<feFlood flood-opacity="0" result="BackgroundImageFix"/>
<feBlend mode="normal" in="SourceGraphic" in2="BackgroundImageFix" result="shape"/>
<feColorMatrix in="SourceAlpha" type="matrix" values="0 0 0 0 0 0 0 0 0 0 0 0 0 0 0 0 0 0 127 0" result="hardAlpha"/>
<feOffset/>
<feGaussianBlur stdDeviation="6.11602"/>
<feComposite in2="hardAlpha" operator="arithmetic" k2="-1" k3="1"/>
<feColorMatrix type="matrix" values="0 0 0 0 0 0 0 0 0 0 0 0 0 0 0 0 0 0 0.07 0"/>
<feBlend mode="normal" in2="shape" result="effect1_innerShadow"/>
</filter>
</defs>
</svg>
